<svg width="1200" height="1400" viewBox="0 0 1200 1400" fill="none" xmlns="http://www.w3.org/2000/svg">
  <rect width="1200" height="1400" rx="40" fill="url(#paint0_linear)"/>
  <rect x="84" y="84" width="1032" height="1232" rx="32" fill="url(#paint1_linear)" stroke="#FFF8F1" stroke-opacity="0.5" stroke-width="4"/>
  <circle cx="600" cy="430" r="190" fill="#F6E8DB" fill-opacity="0.9"/>
  <path d="M394 988C394 849.964 505.964 738 644 738H653C791.036 738 903 849.964 903 988V1048H394V988Z" fill="#E4C2AF"/>
  <path d="M474 385C474 301.053 542.053 233 626 233H634C717.947 233 786 301.053 786 385V459H474V385Z" fill="#C58D70"/>
  <path d="M389 1120H811" stroke="#FFF8F1" stroke-width="10" stroke-linecap="round" stroke-dasharray="1 28"/>
  <text x="600" y="1188" fill="#FFF8F1" font-family="Cormorant Garamond, serif" font-size="72" font-weight="600" text-anchor="middle">Replace With Your Favorite Photo</text>
  <text x="600" y="1260" fill="#FFF8F1" font-family="Manrope, sans-serif" font-size="28" text-anchor="middle" letter-spacing="6">PORTRAIT PLACEHOLDER</text>
  <defs>
    <linearGradient id="paint0_linear" x1="113" y1="90" x2="1069" y2="1325" gradientUnits="userSpaceOnUse">
      <stop stop-color="#34574A"/>
      <stop offset="1" stop-color="#A96C4F"/>
    </linearGradient>
    <linearGradient id="paint1_linear" x1="232" y1="136" x2="958" y2="1250" gradientUnits="userSpaceOnUse">
      <stop stop-color="#E2C59B" stop-opacity="0.48"/>
      <stop offset="1" stop-color="#FFFFFF" stop-opacity="0.12"/>
    </linearGradient>
  </defs>
</svg>
